<svg width="900" height="317" viewBox="0 0 900 317" fill="none" xmlns="http://www.w3.org/2000/svg">
<path d="M450.809 86.3664C450.809 103.923 436.684 118.052 418.462 118.052H404.6V147.094H383.476V54.6805H418.462C436.684 54.6805 450.809 68.8053 450.809 86.3664ZM429.685 86.3664C429.685 79.6298 424.932 74.4824 418.462 74.4824H404.6V98.2458H418.462C424.932 98.2458 429.685 93.0984 429.685 86.3664V86.3664Z" fill="#1A1A1A"/>
<path d="M507.023 132.576H472.697L468.075 147.108H444.973L476.382 54.6945H503.315L534.724 147.108H511.645L507.023 132.576ZM500.675 112.769L489.851 78.8376L479.026 112.769H500.675Z" fill="#1A1A1A"/>
<path d="M607.889 86.3664C607.889 103.923 593.759 118.052 575.542 118.052H561.68V147.094H540.556V54.6805H575.542C593.759 54.6805 607.889 68.8053 607.889 86.3664ZM586.765 86.3664C586.765 79.6298 582.011 74.4824 575.542 74.4824H561.68V98.2458H575.542C582.011 98.2458 586.765 93.089 586.765 86.3664Z" fill="#1A1A1A"/>
<path d="M636.748 54.6805V147.094H615.624V54.6805H636.748Z" fill="#1A1A1A"/>
<path d="M711.578 75.0075H687.814V147.094H666.69V75.0075H642.927V54.6805H711.578V75.0075Z" fill="#1A1A1A"/>
<path d="M717.611 117.26V54.6805H738.735V115.408C738.735 122.408 742.017 128.347 753.268 128.347C764.519 128.347 767.8 122.408 767.8 115.408V54.6805H788.924V117.26C788.924 137.062 773.613 148.946 753.296 148.946C732.978 148.946 717.611 137.062 717.611 117.26Z" fill="#1A1A1A"/>
<path d="M871.231 86.3664C871.231 103.923 857.106 118.052 838.884 118.052H825.022V147.094H803.898V54.6805H838.884C857.106 54.6805 871.231 68.8053 871.231 86.3664ZM850.107 86.3664C850.107 79.6298 845.353 74.4824 838.884 74.4824H825.022V98.2458H838.884C845.353 98.2458 850.107 93.089 850.107 86.3664Z" fill="#1A1A1A"/>
<path d="M900.09 54.6805V147.094H878.966V54.6805H900.09Z" fill="#1A1A1A"/>
<path d="M408.322 207.944C399.218 204.939 395.224 203.069 395.224 197.79C395.224 192.099 399.668 188.414 406.55 188.414C414.52 188.414 418.218 193.299 419.911 197.401L420.82 199.609L428.41 195.39L427.674 193.613C424.041 184.954 416.142 179.788 406.55 179.788C401.037 179.788 395.988 181.509 392.341 184.631C390.431 186.273 388.906 188.316 387.874 190.613C386.842 192.911 386.328 195.408 386.368 197.926C386.368 203.313 388.506 207.429 392.899 210.504C396.588 213.087 401.393 214.648 406.494 216.298L406.77 216.387C416.207 219.388 420.698 221.76 420.698 227.132C420.698 233.264 415.893 236.925 407.839 236.925C399.556 236.925 393.935 233.212 392.008 226.462L391.253 223.822L383.476 228.407L384.001 230.034C385.486 234.675 388.517 238.666 392.589 241.341C396.762 244.103 402.026 245.561 407.825 245.561C420.816 245.561 429.54 238.135 429.54 227.081C429.54 214.957 418.27 211.231 408.322 207.944Z" fill="#009245"/>
<path d="M454.574 232.34L438.893 197.79H429.624L450.19 243.306L449.605 244.74C448.222 247.994 445.113 253.436 439.802 253.436C439.558 253.441 439.313 253.43 439.071 253.403L436.755 253.193V261.486L438.71 261.645C439.127 261.682 439.544 261.696 439.957 261.696C447.373 261.696 454.18 256.141 457.724 247.192L477.268 197.79H468.084L454.574 232.34Z" fill="#009245"/>
<path d="M518.058 203.28C516.787 202.033 515.371 200.944 513.839 200.036C510.215 197.906 506.078 196.806 501.875 196.853C495.601 197.128 489.675 199.814 485.333 204.351C480.99 208.888 478.567 214.926 478.567 221.207C478.567 227.487 480.99 233.525 485.333 238.062C489.675 242.599 495.601 245.285 501.875 245.561C506.078 245.605 510.214 244.504 513.839 242.377C515.37 241.468 516.786 240.379 518.058 239.133V244.623H526.656V197.79H518.058V203.28ZM502.218 237.211C497.972 237.211 493.9 235.525 490.897 232.522C487.895 229.52 486.208 225.448 486.208 221.202C486.208 216.956 487.895 212.884 490.897 209.881C493.9 206.879 497.972 205.192 502.218 205.192C511.125 205.192 518.058 212.224 518.058 221.202C518.058 230.179 511.101 237.211 502.218 237.211Z" fill="#009245"/>
<path d="M543.772 201.489V197.79H535.258V244.623H543.772V218.839C543.772 206.514 553.03 205.558 555.867 205.558H557.995V197.214H555.867C550.907 197.195 546.824 198.657 543.772 201.489Z" fill="#009245"/>
<path d="M575.106 197.79H566.593V244.623H575.106V197.79Z" fill="#009245"/>
<path d="M570.854 182.503C569.767 182.51 568.707 182.84 567.808 183.449C566.909 184.059 566.21 184.922 565.801 185.929C565.392 186.936 565.291 188.041 565.51 189.105C565.73 190.17 566.26 191.145 567.033 191.908C567.807 192.671 568.789 193.188 569.857 193.393C570.924 193.597 572.028 193.481 573.029 193.058C574.03 192.636 574.883 191.926 575.481 191.018C576.078 190.11 576.393 189.046 576.386 187.959V187.959C576.372 186.503 575.783 185.112 574.746 184.089C573.71 183.067 572.31 182.496 570.854 182.503V182.503Z" fill="#009245"/>
<path d="M619.773 203.28C618.502 202.033 617.086 200.944 615.554 200.036C611.93 197.906 607.793 196.806 603.59 196.853C597.316 197.128 591.39 199.814 587.048 204.351C582.706 208.888 580.282 214.926 580.282 221.207C580.282 227.487 582.706 233.525 587.048 238.062C591.39 242.599 597.316 245.285 603.59 245.561C607.793 245.607 611.93 244.507 615.554 242.377C617.085 241.468 618.501 240.379 619.773 239.133V244.623H628.376V197.79H619.773V203.28ZM603.933 237.211C599.687 237.211 595.615 235.525 592.612 232.522C589.61 229.52 587.923 225.448 587.923 221.202C587.923 216.956 589.61 212.884 592.612 209.881C595.615 206.879 599.687 205.192 603.933 205.192C612.84 205.192 619.773 212.224 619.773 221.202C619.773 230.179 612.816 237.211 603.933 237.211Z" fill="#009245"/>
<path d="M672.194 202.155C668.851 198.686 664.149 196.853 658.599 196.853C653.297 196.853 648.857 198.484 645.473 201.625V180.759H636.954V244.623H645.473V220.016C645.473 210.738 650.245 205.197 658.243 205.197C664.848 205.197 668.631 209.14 668.631 216.012V244.609H677.233V216.012C677.252 210.377 675.504 205.586 672.194 202.155Z" fill="#009245"/>
<path d="M85.5086 84.135C60.2592 108.902 49.294 145.744 56.912 180.285C62.0401 203.477 74.9421 224.22 93.4781 239.072L93.8719 239.386V239.893C93.7875 243.518 93.886 247.145 94.1672 250.759C94.5307 255.215 95.1774 259.643 96.1034 264.017C99.58 280.539 107.044 295.961 117.846 308.937L119.993 311.511L116.763 310.634C92.215 303.965 69.6367 291.475 50.9427 274.223C32.2486 256.971 17.9901 235.466 9.37595 211.531C8.99623 210.495 8.68682 209.632 8.43836 208.816C-2.20699 177.366 -2.68316 143.363 7.07734 111.627C16.8378 79.8912 36.3398 52.0325 62.8188 32.0001L63.0204 31.8454L63.2595 31.8032C78.2178 28.9861 93.6076 29.4253 108.381 33.0907C123.154 36.7561 136.964 43.5618 148.871 53.0444L150.906 54.6758L148.313 54.9149C124.669 57.2088 102.519 67.5192 85.5414 84.135H85.5086Z" fill="url(#paint0_linear)"/>
<path d="M188.611 135.253C188.424 189.633 146.888 234.253 93.7734 239.325L93.4734 239.077C74.9297 224.231 62.0258 203.486 56.9072 180.29L56.8088 179.845C63.5151 183.797 71.0333 186.17 78.7932 186.784C86.5532 187.398 94.3511 186.238 101.596 183.39C108.84 180.543 115.342 176.083 120.606 170.349C125.871 164.615 129.761 157.758 131.982 150.297C134.202 142.837 134.695 134.968 133.422 127.289C132.15 119.609 129.145 112.32 124.636 105.975C120.128 99.6293 114.233 94.3936 107.4 90.6648C100.567 86.936 92.9751 84.8119 85.1991 84.4537L85.5226 84.135C102.499 67.5259 124.642 57.2163 148.28 54.9148L150.835 54.6805C162.582 64.5813 172.043 76.9116 178.564 90.8215C185.086 104.731 188.513 119.89 188.611 135.253V135.253Z" fill="url(#paint1_linear)"/>
<path d="M301.544 224.455L301.451 224.68C286.612 256.694 261.473 282.813 230.05 298.865C198.626 314.917 162.73 319.977 128.094 313.236L127.728 313.17L121.583 305.801C111.284 293.445 104.161 278.76 100.834 263.023C99.9608 258.847 99.3533 254.619 99.0146 250.366C98.8787 248.612 98.7802 246.812 98.738 245.012L98.6912 242.982L100.384 244.112C117.482 255.588 137.613 261.707 158.205 261.687C173.638 261.707 188.877 258.241 202.783 251.547L203.017 251.43C204.505 250.711 205.975 249.959 207.429 249.175C208.896 248.378 210.199 247.637 211.423 246.892C211.709 246.733 211.948 246.582 212.192 246.423C243.128 228.27 266.859 200.005 279.385 166.394C291.911 132.783 292.465 95.8814 280.955 61.9093L279.951 56.9963L282.788 60.9202C288.156 67.82 292.945 75.152 297.105 82.8411C309.102 104.849 315.633 129.418 316.147 154.478C316.64 178.608 311.646 202.536 301.544 224.455V224.455Z" fill="url(#paint2_linear)"/>
<path d="M271.719 172.391C266.934 183.4 260.858 193.802 253.619 203.378L249.109 207.677L251.819 202.272C276.22 150.503 254.032 88.7526 202.262 64.3518C188.654 57.9379 173.812 54.5641 158.767 54.4648H158.402L151.89 49.2237C132.26 33.6138 107.926 25.1048 82.8458 25.0806C80.5862 25.0806 78.3266 25.1509 76.1326 25.2916L70.5071 26.037L75.5279 23.3461C77.8719 21.8928 80.3518 20.463 82.8974 19.0941C112.436 3.11428 146.296 -3.04615 179.57 1.50531C212.845 6.05676 243.806 21.0837 267.969 44.4091L268.082 44.5216L268.161 44.6623C271.43 50.6899 274.175 56.9871 276.365 63.4845C288.471 99.093 286.814 137.943 271.719 172.391V172.391Z" fill="url(#paint3_linear)"/>
<defs>
<linearGradient id="paint0_linear" x1="37.8694" y1="282.858" x2="125.478" y2="38.6476" gradientUnits="userSpaceOnUse">
<stop stop-color="#666666"/>
<stop offset="0.65" stop-color="#999999"/>
<stop offset="1" stop-color="#808080"/>
</linearGradient>
<linearGradient id="paint1_linear" x1="142.383" y1="107.926" x2="88.537" y2="232.256" gradientUnits="userSpaceOnUse">
<stop stop-color="#808080"/>
<stop offset="0.3" stop-color="#666666"/>
<stop offset="1" stop-color="#333333"/>
</linearGradient>
<linearGradient id="paint2_linear" x1="296.35" y1="70.207" x2="155.983" y2="309.776" gradientUnits="userSpaceOnUse">
<stop stop-color="#39B54A"/>
<stop offset="1" stop-color="#006837"/>
</linearGradient>
<linearGradient id="paint3_linear" x1="70.5071" y1="103.862" x2="284.377" y2="103.862" gradientUnits="userSpaceOnUse">
<stop stop-color="#ED1C24"/>
<stop offset="1" stop-color="#64272D"/>
</linearGradient>
</defs>
</svg>
